<svg width="184" height="100" viewBox="0 0 184 100" fill="none" xmlns="http://www.w3.org/2000/svg">
<rect width="184" height="100" rx="10" fill="white"/>
<g clip-path="url(#clip0_26_109)">
<path d="M39.9705 61.0956L39.8708 61.1857C38.2639 62.715 36.4041 63.5255 34.4877 63.5255C30.4874 63.5255 27.5837 60.7222 27.5837 56.8542C27.5837 52.9932 30.4874 50.186 34.4877 50.186C36.4041 50.186 38.2639 50.9998 39.8708 52.5332L39.9705 52.626L42.5431 49.7201L42.4743 49.6413C40.3349 47.2795 37.7678 46.1298 34.6119 46.1298C31.445 46.1298 28.5501 47.1254 26.4638 48.9209C24.1969 50.8652 23 53.6073 23 56.8542C23 60.0995 24.1969 62.8484 26.4638 64.7933C28.5501 66.597 31.445 67.5872 34.6119 67.5872C37.7678 67.5872 40.3349 66.4381 42.4743 64.0754L42.5431 64.002L39.9705 61.0956Z" fill="#003B70"/>
<path d="M45.1428 67.1917H49.6876V46.4665H45.1428V67.1917Z" fill="#003B70"/>
<path d="M67.4898 62.6851C66.2773 63.3748 65.1489 63.7215 64.1356 63.7215C62.6672 63.7215 62.0037 62.9976 62.0037 61.385V50.3882H66.6323V46.4854H62.0037V40.0367L57.5491 42.2636V46.4854H53.7063V50.3882H57.5491V62.0865C57.5491 65.2737 59.5702 67.451 62.5871 67.5076C64.6356 67.5451 65.8705 66.9751 66.6206 66.5583L66.6645 66.5278L67.7587 62.5317L67.4898 62.6851Z" fill="#003B70"/>
<path d="M71.2539 67.1917H75.8017V46.4665H71.2539V67.1917Z" fill="#003B70"/>
<path d="M148.287 38.5808V58.3504L149.702 56.2918C149.701 56.301 156.063 47.6954 156.878 46.5981H159.714C159.11 47.3556 154.108 53.786 154.108 53.786C154.108 53.786 160.624 66.4691 161 67.1917H158.216C158.063 66.8958 152.466 55.8266 152.466 55.8266L148.287 61.2962V67.1917H145.693V39.9645C145.92 39.8428 147.676 38.9022 148.287 38.5808ZM126.979 49.0533C128.317 47.1848 130.413 46.1545 132.866 46.1545C137.756 46.1545 140.348 49.0682 140.348 54.582V67.1917H137.748V55.1041C137.748 50.4131 136.004 48.2356 132.227 48.2356C128.612 48.2356 126.453 50.8043 126.453 55.1041V67.1917H123.86V46.5981H126.453V49.7917L126.979 49.0533ZM111.036 46.1545C116.069 46.1545 118.515 48.3043 118.515 52.728V67.1917H115.921V64.1872L115.416 64.7071C113.507 66.6747 111.316 67.6368 108.707 67.6368C106.662 67.6368 101.905 67.0047 101.905 61.1421C101.905 56.35 106.14 54.6492 110.107 54.6492C112.099 54.6492 114.066 55.0777 115.494 55.8251L115.921 56.0462V53.0897C115.921 49.8118 114.207 48.1518 110.821 48.1518C108.733 48.1518 106.848 48.6442 104.915 49.6617C104.745 49.2957 104.145 48.0577 103.978 47.7046C105.998 46.7101 108.492 46.1545 111.036 46.1545ZM104.449 60.9402C104.449 64.0187 106.156 65.7153 109.259 65.7153C111.899 65.7153 114.244 64.55 115.872 62.4309L115.921 62.3582V57.8432L115.777 57.7652C114.121 56.8835 112.425 56.5278 109.933 56.5278C106.502 56.5278 104.449 58.1769 104.449 60.9402ZM84.4192 38.5808V49.5971L84.9214 49.0835C86.8317 47.1124 88.9464 46.1545 91.3776 46.1545C96.2428 46.1545 99.0354 49.9427 99.0354 56.5494C99.0354 63.2844 95.8637 67.6368 90.9532 67.6368C88.5605 67.6368 86.6446 66.7696 84.9241 64.9108L84.4192 64.3619V67.1917H81.8306V39.9645C82.051 39.8428 83.8107 38.9022 84.4192 38.5808ZM84.4808 51.3914L84.4192 51.4675V62.1874L84.4655 62.2531C85.8964 64.3217 88.2274 65.5585 90.7084 65.5585C94.5398 65.5585 96.482 62.5417 96.482 56.5933C96.482 51.2794 94.3302 48.2356 90.5787 48.2356C88.3047 48.2356 86.2529 49.2969 84.4808 51.3914Z" fill="#003B70"/>
<path fill-rule="evenodd" clip-rule="evenodd" d="M78.524 42.7891C74.3637 37.2843 67.4546 34 60.4252 34C53.3986 34 46.4882 37.2843 42.3348 42.7891L42.1217 43.0723H47.3601L47.4182 43.0136C50.9835 39.576 55.6378 37.7581 60.4252 37.7581C65.2132 37.7581 69.8665 39.576 73.4388 43.0136L73.4967 43.0723H78.7335L78.524 42.7891Z" fill="#D9261C"/>
</g>
<defs>
<clipPath id="clip0_26_109">
<rect width="138" height="37" fill="white" transform="translate(23 32)"/>
</clipPath>
</defs>
</svg>
