<svg width="184" height="100" viewBox="0 0 184 100" fill="none" xmlns="http://www.w3.org/2000/svg">
<rect width="184" height="100" rx="10" fill="white"/>
<g clip-path="url(#clip0_26_102)">
<path d="M159.799 44.508C159.799 44.4225 159.77 44.3574 159.718 44.3145C159.662 44.2715 159.594 44.25 159.512 44.25H159.039V44.7662H159.512C159.594 44.7662 159.662 44.747 159.718 44.7044C159.771 44.6624 159.799 44.5975 159.799 44.508ZM160.104 44.4984C160.104 44.6427 160.068 44.7594 160 44.8492C159.93 44.9383 159.836 44.9995 159.722 45.0335L160.09 45.7663H159.733L159.383 45.0652H159.039V45.7663H158.734V43.9503H159.518C159.597 43.9503 159.672 43.96 159.743 43.9824C159.813 44.0049 159.876 44.0372 159.929 44.0821C159.981 44.1266 160.024 44.1834 160.056 44.2529C160.088 44.3215 160.104 44.4036 160.104 44.4984ZM160.737 44.8906C160.737 44.6938 160.701 44.51 160.633 44.3394C160.563 44.1689 160.465 44.0205 160.34 43.8946C160.217 43.7687 160.07 43.6706 159.901 43.5998C159.733 43.5283 159.552 43.4937 159.358 43.4937C159.16 43.4937 158.978 43.5283 158.812 43.5998C158.644 43.6709 158.499 43.769 158.374 43.8946C158.249 44.0206 158.153 44.169 158.082 44.3394C158.012 44.51 157.978 44.6938 157.978 44.8906C157.978 45.0903 158.012 45.2746 158.082 45.4437C158.153 45.613 158.249 45.7604 158.374 45.8862C158.499 46.0121 158.644 46.1112 158.812 46.1811C158.978 46.2522 159.16 46.2865 159.358 46.2865C159.552 46.2865 159.733 46.2519 159.901 46.1811C160.07 46.1109 160.217 46.0118 160.34 45.8862C160.465 45.7605 160.563 45.6128 160.633 45.4437C160.701 45.2745 160.737 45.0902 160.737 44.8906ZM161 44.8906C161 45.1272 160.959 45.3469 160.875 45.5493C160.791 45.7525 160.677 45.9286 160.528 46.0775C160.382 46.2262 160.209 46.3435 160.009 46.4277C159.807 46.5127 159.591 46.555 159.357 46.555C159.123 46.555 158.906 46.5127 158.707 46.4277C158.506 46.3434 158.333 46.2265 158.185 46.0775C158.039 45.9288 157.923 45.7525 157.838 45.5493C157.755 45.347 157.714 45.1271 157.714 44.8906C157.714 44.6538 157.755 44.4343 157.838 44.2311C157.923 44.0279 158.039 43.8522 158.185 43.7029C158.333 43.5542 158.506 43.4375 158.707 43.3531C158.906 43.2681 159.123 43.2258 159.357 43.2258C159.591 43.2258 159.808 43.2681 160.009 43.3531C160.208 43.4374 160.382 43.554 160.528 43.7029C160.677 43.8523 160.791 44.0278 160.875 44.2311C160.959 44.4343 161 44.6537 161 44.8906ZM48.0635 58.5163V46.8472H50.4283V58.5163H48.0635ZM46.111 55.9776L46.2457 55.8904L45.6786 58.1415L45.6533 58.1575C45.2687 58.3982 44.622 58.7157 43.5634 58.6926C41.9914 58.667 40.9406 57.439 40.9406 55.6419V49.0556H38.9449V46.8618H40.9406V44.4858L43.2608 43.2257V46.8618H45.6578V49.0556H43.2608V55.2506C43.2608 56.1577 43.598 56.5655 44.364 56.5655C44.8919 56.5655 45.4812 56.368 46.111 55.9776ZM34.4993 58.5163V46.8472H36.8618V58.5163H34.4993ZM25.3824 52.7006C25.3824 54.882 26.887 56.4514 28.9633 56.4514C29.9618 56.4514 30.928 55.9993 31.7599 55.1397L31.81 55.0846L33.1544 56.7194L33.1177 56.7623C32.0012 58.0943 30.6678 58.7405 29.0293 58.7405C27.385 58.7405 25.8854 58.1837 24.7941 57.1693C23.6239 56.0723 23 54.5255 23 52.7009C23 50.8706 23.6239 49.3271 24.7941 48.232C25.8854 47.2184 27.385 46.6631 29.0293 46.6631C30.6678 46.6631 32.0012 47.3046 33.1176 48.6385L33.1544 48.6792L31.81 50.3177L31.7599 50.2655C30.928 49.399 29.9618 48.945 28.9633 48.945C26.887 48.945 25.3824 50.5275 25.3824 52.7006ZM137.447 58.52H134.749L133.654 56.4989C133.193 55.6555 132.667 54.5894 132.447 54.1451C132.25 54.5894 131.636 55.7218 131.197 56.5215L130.079 58.52H127.522L131.054 52.4798L127.763 46.8624H130.386L131.286 48.5051C131.746 49.349 132.294 50.3929 132.491 50.8367C132.732 50.3929 133.281 49.2825 133.719 48.4608L134.596 46.8624H137.206L133.893 52.4798L137.447 58.52ZM119.551 51.6138H125.244C125.135 50.0149 124.217 48.6829 122.354 48.6829C120.841 48.6829 119.748 49.7486 119.551 51.6138ZM127.525 52.4577C127.525 52.8795 127.481 53.2574 127.459 53.5012H119.507C119.748 55.7439 121.17 56.6694 122.573 56.6694C123.538 56.6694 124.563 56.3141 125.331 55.7366L126.582 57.2317C125.573 58.2088 124.196 58.7642 122.441 58.7642C119.744 58.7642 117.248 56.5657 117.248 52.702C117.248 48.7493 119.525 46.6181 122.507 46.6181C125.774 46.6181 127.525 49.3047 127.525 52.4577ZM115.713 51.7493V58.52H113.392V51.9249C113.392 49.5711 112.669 48.7272 111.178 48.7272C109.665 48.7272 108.994 49.8154 108.994 51.7027V58.52H106.675V51.9249C106.675 49.5711 105.982 48.7272 104.491 48.7272C102.978 48.7272 102.19 49.8154 102.19 51.7027V58.52H99.8702V46.8624H102.19V47.9722C102.76 47.1288 103.832 46.6181 105.017 46.6181C106.574 46.6181 107.56 47.2172 108.174 48.3276C109.008 47.2841 109.906 46.6181 111.704 46.6181C114.379 46.6181 115.713 47.8418 115.713 51.7493ZM95.439 55.2111V53.5459C94.8251 53.2347 93.9503 53.0352 92.722 53.0352C91.2752 53.0352 90.2685 53.7013 90.2685 54.7668C90.2685 55.9219 91.0777 56.6989 92.5686 56.6989C93.7747 56.6989 94.9133 55.9439 95.439 55.2111ZM93.2058 46.6181C95.7712 46.6181 97.7592 47.8838 97.7592 50.5261V58.52H95.439V57.3654C94.6503 58.1646 93.4456 58.7642 92.1959 58.7642C90.3322 58.7642 88.0894 57.6982 88.0894 54.8337C88.0894 52.2356 90.1788 51.0589 92.788 51.0589C93.862 51.0589 94.8037 51.2143 95.439 51.5027V50.6367C95.439 49.3711 94.5001 48.6608 93.097 48.6608C91.9128 48.6608 90.9921 48.8826 90.0928 49.3937L89.2158 47.6616C90.3117 46.973 91.5829 46.6181 93.2058 46.6181ZM72.8048 55.2111V53.5459C72.1909 53.2347 71.3157 53.0352 70.0878 53.0352C68.6405 53.0352 67.6334 53.7013 67.6334 54.7668C67.6334 55.9219 68.4435 56.6989 69.9344 56.6989C71.14 56.6989 72.2787 55.9439 72.8048 55.2111ZM70.5711 46.6181C73.1366 46.6181 75.1246 47.8838 75.1246 50.5261V58.52H72.8048V57.3654C72.0152 58.1646 70.8114 58.7642 69.5617 58.7642C67.698 58.7642 65.4548 57.6982 65.4548 54.8337C65.4548 52.2356 67.5442 51.0589 70.1538 51.0589C71.2279 51.0589 72.169 51.2143 72.8048 51.5027V50.6367C72.8048 49.3711 71.8655 48.6608 70.4624 48.6608C69.2786 48.6608 68.3575 48.8826 67.4586 49.3937L66.5811 47.6616C67.6775 46.973 68.9487 46.6181 70.5711 46.6181ZM86.6977 51.836V58.52H84.3775V51.9249C84.3775 49.5711 83.5005 48.7272 82.0091 48.7272C80.4967 48.7272 79.5556 49.8154 79.5556 51.7027V58.52H77.2354V46.8624H79.5556V47.9722C80.1258 47.1288 81.3919 46.6181 82.5757 46.6181C85.2504 46.6181 86.6977 48.1234 86.6977 51.836ZM59.3958 56.6547C61.0183 56.6547 62.1529 55.4107 62.1529 52.9463C62.1529 50.0149 60.9746 48.7272 59.308 48.7272C58.2339 48.7272 57.1193 49.46 56.5272 50.215V55.1222C57.031 55.8108 58.2558 56.6547 59.3958 56.6547ZM59.7244 46.6181C62.2025 46.6181 64.4239 48.4386 64.4239 52.8794C64.4239 56.8768 62.005 58.7642 59.6152 58.7642C58.4533 58.7642 57.1844 58.1425 56.5491 57.4318V58.52H54.2289V44.486L56.5491 43.2259V47.9722C57.382 47.1951 58.5188 46.6181 59.7244 46.6181Z" fill="#12417D"/>
<path d="M51.9873 45.098H49.2743C47.4193 43.1618 44.9821 42.1086 42.4995 42.1086C39.9741 42.115 37.5797 43.1618 35.7197 45.098H33.0126C35.0429 42.045 38.6756 40 42.4995 40C46.3812 39.9986 50.0212 42.1058 51.9873 45.098ZM154.652 50.4943C155.273 50.6487 155.941 50.8468 156.571 51.0574C157.453 51.3488 157.715 52.0185 157.715 52.7407C157.715 54.0976 156.781 56.1536 155.787 57.2261C155.221 57.8368 154.769 58.1226 154.203 58.1226C153.875 58.1226 153.515 58.0498 153.072 57.9046C152.395 57.6857 151.565 57.364 151.095 57.175C151.134 57.8111 151.149 58.1222 151.149 59.1818C151.149 60.8733 149.268 61 148.209 61C147.197 61 145.96 60.8038 144.99 60.3561C143.897 59.8219 143.544 59.3039 143.544 57.5396C143.544 56.833 143.593 56.3334 143.629 55.8186C143.029 56.051 142.38 56.2846 141.744 56.4906C140.137 57.0243 139.442 55.2678 139.116 54.2538C138.795 53.297 138.687 52.419 138.687 51.6627C138.687 49.903 139.237 49.3074 140.563 48.8733C141.237 48.6553 142.096 48.4336 142.589 48.304C142.19 47.8141 141.765 47.2657 141.376 46.7177C141.135 46.3964 141.034 46.0825 141.034 45.7876C141.034 44.8081 142.028 44.0066 142.687 43.525C143.505 42.9627 145.028 42.1082 146.397 42.1082C147.143 42.1082 147.63 42.4317 148.247 43.2323C148.667 43.802 149.147 44.5458 149.421 44.9823C149.76 44.4454 150.149 43.8711 150.544 43.3309C150.906 42.8839 151.349 42.6991 151.799 42.6991C152.604 42.6991 153.443 43.1941 153.997 43.596C154.758 44.1804 155.657 45.0722 156.162 45.9972C156.451 46.5015 156.601 46.9153 156.601 47.3131C156.601 47.7809 156.393 48.2428 155.96 48.8368C155.544 49.4079 154.984 50.1039 154.652 50.4943ZM152.435 50.1039C152.86 50.1039 153.615 50.2237 154.361 50.4196C154.242 49.595 153.776 47.8362 152.078 46.607C151.912 46.4881 151.771 46.4352 151.644 46.4352C151.393 46.4352 151.176 46.6628 151.176 46.9132C151.176 47.1456 151.338 47.4123 151.577 47.7336C151.905 48.1738 152.441 48.8167 152.441 49.4122C152.441 49.7975 152.218 50.0431 152.082 50.139C152.199 50.1133 152.314 50.1039 152.435 50.1039ZM153.209 55.0041C153.739 54.2243 154.033 53.4924 154.033 53.1799C154.033 52.8738 153.739 52.7466 153.547 52.7466C153.278 52.7466 153.029 52.9544 152.752 53.3454C152.34 53.9409 151.7 54.9664 150.864 54.6894C150.771 54.6554 150.683 54.621 150.624 54.5717C150.759 54.8179 150.823 55.0916 150.885 55.353C150.962 55.7396 151.028 56.2637 151.072 56.8509C151.584 56.5707 152.478 56.0057 153.209 55.0041ZM150.379 54.2727C150.302 54.0878 150.262 53.8634 150.265 53.6021C150.265 53.1693 150.374 52.6697 150.565 52.0622C150.914 50.9957 151.309 50.4942 151.724 50.2711C151.195 50.3362 150.463 49.9987 149.637 49.3991C148.727 48.7313 148.371 48.2026 148.286 47.7436C148.186 48.2639 147.632 48.8622 146.813 49.4618C145.892 50.1269 145.282 50.2983 144.824 50.2352C145.287 50.49 145.681 51.1994 145.997 52.171C146.184 52.7379 146.267 53.1467 146.267 53.5076C146.267 53.8204 146.21 54.0565 146.116 54.2492C146.509 53.8897 147.304 53.7274 148.318 53.7274C149.449 53.7274 150.049 53.9509 150.379 54.2727ZM147.986 57.4229C148.462 57.4229 148.621 57.1874 148.621 56.9233C148.621 56.5689 148.274 56.3813 147.728 56.2163C147.039 56.0038 145.871 55.7144 145.871 54.829C145.871 54.7351 145.884 54.6457 145.911 54.5729C145.718 54.7803 145.473 54.9213 145.238 55.0554C144.907 55.2574 144.432 55.473 143.929 55.7007C144.476 56.2722 145.888 57.4229 147.986 57.4229ZM143.505 52.377C143.486 51.6553 143.399 50.4482 144.244 50.179C144.327 50.1389 144.39 50.1306 144.456 50.138C144.107 49.9633 143.528 49.3991 142.796 48.5534C142.44 49.2968 141.787 50.9975 142.431 52.9416C142.572 53.3887 142.851 53.4735 143.1 53.3928C143.444 53.28 143.513 52.9403 143.505 52.377ZM144.914 46.2784C144.673 46.4466 144.592 46.6249 144.592 46.7692C144.592 46.9186 144.709 47.2592 145.118 47.2592C145.706 47.2592 146.493 46.7402 147.304 46.7402C148.063 46.7402 148.247 47.2873 148.274 47.3698C148.296 47.0163 148.606 46.2659 149.243 45.2584C149.017 45.2206 148.704 45.1956 148.339 45.1956C147.395 45.1956 146.129 45.3931 144.914 46.2784Z" fill="#E30B13"/>
</g>
<defs>
<clipPath id="clip0_26_102">
<rect width="138" height="21" fill="white" transform="translate(23 40)"/>
</clipPath>
</defs>
</svg>
